<svg width="198" height="114" viewBox="0 0 198 114" fill="none" xmlns="http://www.w3.org/2000/svg" xmlns:xlink="http://www.w3.org/1999/xlink">
<rect y="2" width="92" height="109" fill="url(#pattern0)"/>
<path d="M110.64 26.64V24.82H99.2V26.64H103.94V39H105.9V26.64H110.64ZM114.316 33.34C114.356 31.92 115.116 30.8 116.556 30.8C118.236 30.8 118.796 31.88 118.796 33.22V39H120.676V32.9C120.676 30.76 119.536 29.1 117.236 29.1C116.136 29.1 115.016 29.48 114.316 30.5V24.52H112.436V39H114.316V33.34ZM124.886 33.2C124.966 31.96 125.926 30.74 127.506 30.74C129.206 30.74 130.106 31.82 130.146 33.2H124.886ZM130.426 35.7C130.066 36.78 129.286 37.64 127.726 37.64C126.106 37.64 124.866 36.44 124.826 34.72H132.066C132.086 34.6 132.106 34.36 132.106 34.12C132.106 31.12 130.446 29.08 127.486 29.08C125.066 29.08 122.886 31.14 122.886 34.16C122.886 37.42 125.146 39.3 127.726 39.3C129.966 39.3 131.506 37.96 132.046 36.26L130.426 35.7ZM101.9 56.9C101.9 53.2 104.38 51.32 107.02 51.32C109.66 51.32 112.14 53.2 112.14 56.9C112.14 60.6 109.66 62.5 107.02 62.5C104.38 62.5 101.9 60.6 101.9 56.9ZM99.9 56.9C99.9 61.64 103.46 64.3 107.02 64.3C110.58 64.3 114.14 61.64 114.14 56.9C114.14 52.16 110.58 49.52 107.02 49.52C103.46 49.52 99.9 52.16 99.9 56.9ZM121.975 54.28C121.875 54.26 121.615 54.22 121.355 54.22C120.375 54.22 119.175 54.58 118.475 56.06V54.38H116.635V64H118.515V59.18C118.515 57.06 119.575 56.22 121.155 56.22C121.415 56.22 121.695 56.24 121.975 56.28V54.28ZM123.379 61.42C123.379 62.94 124.639 64.3 126.599 64.3C128.319 64.3 129.279 63.38 129.699 62.7C129.699 63.4 129.759 63.76 129.799 64H131.639C131.599 63.76 131.519 63.26 131.519 62.42V57.6C131.519 55.72 130.399 54.08 127.519 54.08C125.439 54.08 123.779 55.36 123.579 57.2L125.379 57.62C125.499 56.5 126.239 55.68 127.559 55.68C129.019 55.68 129.639 56.46 129.639 57.4C129.639 57.74 129.479 58.04 128.899 58.12L126.299 58.5C124.639 58.74 123.379 59.7 123.379 61.42ZM126.859 62.72C125.899 62.72 125.299 62.04 125.299 61.32C125.299 60.46 125.899 60 126.699 59.88L129.639 59.44V59.88C129.639 61.98 128.399 62.72 126.859 62.72ZM136.328 58.44C136.328 56.98 137.088 55.8 138.568 55.8C140.248 55.8 140.808 56.88 140.808 58.22V64H142.688V57.9C142.688 55.76 141.548 54.1 139.248 54.1C138.128 54.1 136.988 54.56 136.288 55.76V54.38H134.448V64H136.328V58.44ZM144.978 64.52C145.218 66.58 147.018 68.1 149.418 68.1C153.038 68.1 154.238 65.72 154.238 63.28V54.38H152.378V55.72C151.898 54.76 150.898 54.2 149.418 54.2C146.778 54.2 144.998 56.28 144.998 58.88C144.998 61.6 146.858 63.54 149.418 63.54C150.858 63.54 151.898 62.84 152.358 61.96V63.34C152.358 65.42 151.438 66.46 149.418 66.46C147.958 66.46 146.938 65.44 146.798 64.1L144.978 64.52ZM149.698 61.96C147.998 61.96 146.918 60.76 146.918 58.88C146.918 57.02 148.038 55.8 149.698 55.8C151.318 55.8 152.438 57.02 152.438 58.88C152.438 60.74 151.318 61.96 149.698 61.96ZM158.461 58.2C158.541 56.96 159.501 55.74 161.081 55.74C162.781 55.74 163.681 56.82 163.721 58.2H158.461ZM164.001 60.7C163.641 61.78 162.861 62.64 161.301 62.64C159.681 62.64 158.441 61.44 158.401 59.72H165.641C165.661 59.6 165.681 59.36 165.681 59.12C165.681 56.12 164.021 54.08 161.061 54.08C158.641 54.08 156.461 56.14 156.461 59.16C156.461 62.42 158.721 64.3 161.301 64.3C163.541 64.3 165.081 62.96 165.621 61.26L164.001 60.7ZM108.14 89H110.42L107.04 83.06C109.18 82.66 110.48 81.08 110.48 79.04C110.48 76.7 108.82 74.82 106.14 74.82H100.8V89H102.78V83.2H104.9L108.14 89ZM102.78 81.44V76.58H105.78C107.38 76.58 108.46 77.54 108.46 79.04C108.46 80.5 107.38 81.44 105.78 81.44H102.78ZM116.712 87.62C115.112 87.62 113.712 86.42 113.712 84.18C113.712 81.96 115.112 80.76 116.712 80.76C118.312 80.76 119.712 81.96 119.712 84.18C119.712 86.42 118.312 87.62 116.712 87.62ZM116.712 79.08C113.832 79.08 111.792 81.26 111.792 84.18C111.792 87.12 113.832 89.3 116.712 89.3C119.592 89.3 121.632 87.12 121.632 84.18C121.632 81.26 119.592 79.08 116.712 79.08ZM128.158 87.62C126.558 87.62 125.158 86.42 125.158 84.18C125.158 81.96 126.558 80.76 128.158 80.76C129.758 80.76 131.158 81.96 131.158 84.18C131.158 86.42 129.758 87.62 128.158 87.62ZM128.158 79.08C125.278 79.08 123.238 81.26 123.238 84.18C123.238 87.12 125.278 89.3 128.158 89.3C131.038 89.3 133.078 87.12 133.078 84.18C133.078 81.26 131.038 79.08 128.158 79.08ZM137.343 89V83.2C137.343 81.76 138.243 80.76 139.583 80.76C141.023 80.76 141.623 81.72 141.623 82.96V89H143.503V83.18C143.503 81.8 144.403 80.76 145.723 80.76C147.143 80.76 147.763 81.7 147.763 82.96V89H149.623V82.76C149.623 80.24 147.983 79.1 146.303 79.1C145.083 79.1 143.843 79.54 143.083 80.92C142.563 79.68 141.403 79.1 140.203 79.1C139.083 79.1 137.883 79.6 137.283 80.66V79.38H135.483V89H137.343Z" fill="#ED692C"/>
<defs>
<pattern id="pattern0" patternContentUnits="objectBoundingBox" width="1" height="1">
<use xlink:href="#image0" transform="translate(-0.0923913) scale(0.000592391)"/>
</pattern>
</defs>
</svg>
